<svg id="Business_Logo" data-name="Business Logo" xmlns="http://www.w3.org/2000/svg" viewBox="0 0 144.4026 143.4026"><defs><style>.cls-1{fill:#bf4587;}.cls-2{fill:#fff;}.cls-3{fill:none;stroke:#bf4587;stroke-miterlimit:10;}</style></defs><title>business</title><circle class="cls-1" cx="72.2013" cy="71.7013" r="70.4026"/><path class="cls-2" d="M15.9911,70.3946s2.4676-2.3644,7.8279,1.217c5.3027,3.5428,10.5976,11.7951,10.5976,11.7951s6.5753,2.147,8.8289,2.5226c3.7838,0.6306,10.09,1.8919,13.874,4.4145A25.6553,25.6553,0,0,1,66.872,101.58c1.0267,2.1683,3.0187,7.1946,2.86,10.8364-0.3153,7.2523-.0508,15.7719.6306,15.766l-24.3659.1421a40.8083,40.8083,0,0,0,.1678-7.5919c-0.3018-9.3046-22.4331-18.4849-22.4331-18.4849a21.6647,21.6647,0,0,1-6.2494-6.8735C14.6309,90.6214,6.5031,72.0972,6.5031,72.0972l-0.11-14.7429a43.2139,43.2139,0,0,1,.16-5.63,53.4719,53.4719,0,0,0,.4735-5.65s5.0693-1.3937,6.3366,2.4083S15.9911,70.3946,15.9911,70.3946Z"/><path class="cls-3" d="M34.4149,79.4219c-2.462-2.3389-5.3072-5.5365-6.77-6.4011a38.4254,38.4254,0,0,0-4.8009-2.3389l-2.7082-.6155c-1.8854-.453-6.5682.2737-5.17,2.462,2.8313,4.4316,6.1139,8.0425,13.4178,17.2339"/><path class="cls-2" d="M127.1027,70.3946s-2.4676-2.3644-7.8279,1.217c-5.3027,3.5428-10.5976,11.7951-10.5976,11.7951s-6.5753,2.147-8.8289,2.5226c-3.7838.6306-10.09,1.8919-13.874,4.4145a25.6553,25.6553,0,0,0-9.7524,11.236c-1.0267,2.1683-3.0187,7.1946-2.86,10.8364,0.3153,7.2523.0508,15.7719-.6306,15.766l24.3659,0.1421a40.8083,40.8083,0,0,1-.1678-7.5919c0.3018-9.3046,22.4331-18.4849,22.4331-18.4849a21.6647,21.6647,0,0,0,6.2494-6.8735c2.8515-4.7525,10.9793-23.2766,10.9793-23.2766l0.11-14.7429a43.2139,43.2139,0,0,0-.16-5.63,53.4719,53.4719,0,0,1-.4735-5.65s-5.0693-1.3937-6.3366,2.4083S127.1027,70.3946,127.1027,70.3946Z"/><path class="cls-3" d="M108.6789,79.4219c2.462-2.3389,5.3072-5.5365,6.77-6.4011a38.4254,38.4254,0,0,1,4.8009-2.3389l2.7082-.6155c1.8854-.453,6.5682.2737,5.17,2.462-2.8313,4.4316-6.1139,8.0425-13.4178,17.2339"/><circle class="cls-2" cx="58.8359" cy="34.4083" r="10.7857"/><path class="cls-2" d="M59.2631,85.5641a20.54,20.54,0,0,0-5.07-4.7041A13.1865,13.1865,0,0,0,48.405,78.847L48.0276,68.1526a26.9345,26.9345,0,0,0-1.6356,4.4036,28.7611,28.7611,0,0,0-.7549,5.1585h-8.43s1.0118-13.2694,4.9068-19.5015C45.26,53.18,49.4116,48.2737,54.3184,47.0155c2.93-.7513,5.1432-1.3307,9.4362-0.1258,5.7878,1.6244,8.598,8.5019,8.598,8.5019L72.0585,77.5889a20.9087,20.9087,0,0,0-7.1751,2.0591C62.1155,81.2836,59.2631,85.5641,59.2631,85.5641Z"/><circle class="cls-2" cx="84.9117" cy="37.1234" r="9.5008"/><path class="cls-2" d="M84.766,85.4341a18.7012,18.7012,0,0,1,4.6552-4.5294A15.0937,15.0937,0,0,1,95.7749,79.08l0.3774-10.1282s1.1365,2.731,1.8243,4.7181a38.3378,38.3378,0,0,1,1.0694,4.4036l7.36-.0629a47.6469,47.6469,0,0,0-5.1585-19.5015c-3.747-7.0256-6.5679-9.793-12.9591-10.7573a15.8813,15.8813,0,0,0-8.9157.875c-3.6037,1.3907-7.2166,6.618-7.1684,6.5426L72.0585,77.5889s4.66,0.5444,7.0977,1.9851S84.766,85.4341,84.766,85.4341Z"/><circle class="cls-1" cx="72.1413" cy="69.632" r="7.1732"/></svg>